<svg xmlns="http://www.w3.org/2000/svg" width="687.351" height="541.758" viewBox="0 0 7823 6166" xmlns:xlink="http://www.w3.org/1999/xlink" shape-rendering="geometricPrecision" text-rendering="geometricPrecision" image-rendering="optimizeQuality" fill-rule="evenodd" clip-rule="evenodd"><defs><linearGradient id="id0" gradientUnits="userSpaceOnUse" x1="1201.25" y1="3910.25" x2="2918.17" y2="3910.25"><stop offset="0" stop-color="#30d1d6"/><stop offset=".78" stop-color="#3abae7"/><stop offset="1" stop-color="#45a3f9"/></linearGradient><linearGradient id="id1" gradientUnits="userSpaceOnUse" xlink:href="#id0" x1="644.947" y1="229.715" x2="492.106" y2="229.715"/><linearGradient id="id2" gradientUnits="userSpaceOnUse" x1="1810.51" y1="6135" x2="1810.51" y2="5140.55"><stop offset="0" stop-color="#89ead6"/><stop offset=".871" stop-color="#6dbee7"/><stop offset="1" stop-color="#5092f9"/></linearGradient><linearGradient id="id3" gradientUnits="userSpaceOnUse" xlink:href="#id0" x1="1329.94" y1="2394.75" x2="2411.07" y2="2394.75"/><linearGradient id="id4" gradientUnits="userSpaceOnUse" x1="1242.9" y1="1128.2" x2="3033.73" y2="1128.2"><stop offset="0" stop-color="#6c69ae"/><stop offset=".871" stop-color="#5054ab"/><stop offset="1" stop-color="#333ea8"/></linearGradient><linearGradient id="id5" gradientUnits="userSpaceOnUse" x1="577.214" y1="244.629" x2="1372.06" y2="244.629"><stop offset="0" stop-color="#43a8bc"/><stop offset=".129" stop-color="#7dc0a6"/><stop offset="1" stop-color="#b8d98f"/></linearGradient><linearGradient id="id6" gradientUnits="userSpaceOnUse" xlink:href="#id2" x1="645.222" y1="318.449" x2="504.694" y2="318.449"/><linearGradient id="id7" gradientUnits="userSpaceOnUse" x1="2018.26" y1="372.149" x2="2342.33" y2="372.149"><stop offset="0" stop-color="#efb384"/><stop offset=".78" stop-color="#f0a06c"/><stop offset="1" stop-color="#f28c53"/></linearGradient><linearGradient id="id8" gradientUnits="userSpaceOnUse" xlink:href="#id7" x1="2390.76" y1="441.254" x2="2816.59" y2="441.254"/><linearGradient id="id9" gradientUnits="userSpaceOnUse" xlink:href="#id4" x1="4593.86" y1="3072.07" x2="5241.9" y2="3072.07"/><linearGradient id="id10" gradientUnits="userSpaceOnUse" xlink:href="#id7" x1="1167.63" y1="383.11" x2="1390.54" y2="383.11"/><linearGradient id="id11" gradientUnits="userSpaceOnUse" xlink:href="#id0" x1="3182.42" y1="4060.61" x2="4748.87" y2="4380.76"/><linearGradient id="id12" gradientUnits="userSpaceOnUse" xlink:href="#id0" x1="1372.06" y1="236.899" x2="1839.48" y2="236.899"/><linearGradient id="id13" gradientUnits="userSpaceOnUse" xlink:href="#id0" x1="5043.96" y1="4120.05" x2="6729.71" y2="3794.02"/><linearGradient id="id14" gradientUnits="userSpaceOnUse" x1="1511.02" y1="2353.96" x2="1511.02" y2="1707.36"><stop offset="0" stop-color="#f8e6d9"/><stop offset=".129" stop-color="#fbf2ec"/><stop offset="1" stop-color="#fff"/></linearGradient><linearGradient id="id15" gradientUnits="userSpaceOnUse" xlink:href="#id2" x1="621.412" y1="152.746" x2="492.79" y2="152.746"/><linearGradient id="id16" gradientUnits="userSpaceOnUse" xlink:href="#id2" x1="6712.52" y1="6135" x2="6712.52" y2="5140.55"/><linearGradient id="id17" gradientUnits="userSpaceOnUse" xlink:href="#id14" x1="5750.5" y1="5091.72" x2="5733.92" y2="4246.22"/><linearGradient id="id18" gradientUnits="userSpaceOnUse" xlink:href="#id4" x1="2484.28" y1="551.399" x2="2476.46" y2="835.622"/><linearGradient id="id19" gradientUnits="userSpaceOnUse" xlink:href="#id4" x1="2829.1" y1="556.131" x2="2821.44" y2="834.31"/><linearGradient id="id20" gradientUnits="userSpaceOnUse" xlink:href="#id14" x1="3825.77" y1="5129.12" x2="3809.2" y2="4284.34"/><linearGradient id="id21" gradientUnits="userSpaceOnUse" xlink:href="#id14" x1="1923.14" y1="5168.77" x2="1906.6" y2="4325.36"/><linearGradient id="id22" gradientUnits="userSpaceOnUse" xlink:href="#id14" x1="5907.56" y1="2805.8" x2="5953.71" y2="2095.19"/><linearGradient id="id23" gradientUnits="userSpaceOnUse" xlink:href="#id4" x1="2668.77" y1="537.001" x2="2647.98" y2="1194.45"/><linearGradient id="id24" gradientUnits="userSpaceOnUse" xlink:href="#id0" x1="1948.61" y1="2925.72" x2="2710.87" y2="2728.74"/><linearGradient id="id25" gradientUnits="objectBoundingBox" xlink:href="#id0" x1="47.953%" y1="105.073%" x2="51.341%" y2="13.932%"/><linearGradient id="id26" gradientUnits="userSpaceOnUse" x1="2191.27" y1="1000.89" x2="3033.73" y2="1000.89"><stop offset="0" stop-color="#4f3f8e"/><stop offset=".78" stop-color="#68408e"/><stop offset="1" stop-color="#82418e"/></linearGradient><linearGradient id="id27" gradientUnits="userSpaceOnUse" xlink:href="#id2" x1="4064.8" y1="6244.32" x2="4081.66" y2="5081.23"/><style>.fil0,.fil24,.fil8{fill-rule:nonzero}.fil8{fill:#111022}.fil24{fill:#f79244}.fil0{fill:url(#id25);fill-opacity:.368627}</style></defs><g id="OBJECTS"><g id="_259945192"><path class="fil0" d="M987 5017H206C-3 4800-59 4454 66 4179c119-261 375-434 529-676 331-517 171-1286 620-1704 225-209 547-269 853-293 306-25 621-24 904-143 349-146 611-461 970-579 403-134 885 33 1121 386 147 221 203 498 377 699 282 324 779 349 1130 596 241 169 404 445 435 738 38 354-97 756 115 1041 104 139 271 218 383 351 111 132 142 253 107 422H987z"/><path class="fil0" d="M1187 5017H406c-209-217-265-563-140-838 119-261 374-434 529-676 331-517 171-1286 620-1704 224-209 547-269 853-293 305-25 621-24 904-143 348-146 611-461 970-579 403-134 885 33 1121 386 147 221 203 498 377 699 282 324 778 349 1130 596 241 169 404 445 435 738 37 354-97 756 115 1041 103 139 271 218 382 351 112 132 143 253 108 422H1187z"/></g><path d="M2985 2342l-32 1H47l-7 1c-28-193 122-389 312-441 166-45 361-5 500-106 124-91 155-261 237-392 50-82 123-150 207-195 106-57 238-77 347-25 192 91 229 346 358 516 29 38 65 73 111 86 42 11 87 2 130-5 143-25 313-23 402 91 41 54 56 123 79 186 23 64 61 130 125 153 30 10 65 11 92 29 33 22 43 60 45 101z" fill="url(#id14)" fill-rule="nonzero"/><path d="M7659 2709H4270c-27-36-30-91-11-133 25-55 78-93 130-124 52-32 107-61 146-107 75-89 71-218 87-333 20-137 77-272 180-364 41-37 89-66 139-89 142-66 317-82 450 1 127 80 189 231 300 332 26 24 56 45 90 53 99 23 184-67 258-136 106-99 247-172 390-154 168 22 299 166 363 324 26 65 47 138 100 184 136 120 366-14 525 73 60 32 99 92 131 152 53 100 91 209 111 321z" fill="url(#id22)" fill-rule="nonzero"/><g id="_259944712" fill-rule="nonzero"><path d="M2918 4589h-244v428h-590v-428h-883v-440l921-1346h552v1339h244v447zm-834-447v-257c0-49 2-114 5-197 4-82 7-125 9-129h-17c-34 78-73 150-117 218l-245 365h365z" fill="url(#id0)"/><path d="M2757 4589h-244v428h-590v-428h-883v-439l921-1346h552v1338h244v447zm-834-447v-257c0-49 1-114 5-196 4-83 6-126 8-130h-16c-35 78-74 151-117 218l-245 365h365z" fill="url(#id21)"/></g><g id="_259945384" fill-rule="nonzero"><path d="M6771 4603l-84-438-159 30-81 16-254-1314-543 105-648 1496 84 431 866-167 50 255h601l-71-367 81-16 158-31zm-1062-249l-200 38 143-336 29-68c30-75 54-154 73-237l16-3c-1 5 4 48 17 129 12 81 22 146 32 194l48 252-158 31z" fill="url(#id13)"/><path d="M6613 4634l-85-438-239 46-254-1314-385 74-158 31-648 1496 83 431 159-31 708-137 43 225h602l-65-337 158-30 81-16zm-961-578c3 16 6 31 8 45l49 253-358 69 172-405c29-74 54-153 73-236l16-3c-1 4 4 47 16 129 9 58 17 107 24 148z" fill="url(#id17)"/></g><g id="_259945432"><path d="M3001 3894h-361l-229-1676s-331-362-711-430l362-39 816 23 123 2122z" fill="url(#id24)" fill-rule="nonzero"/><path class="fil8" d="M1578 2973s-205 299-114 557l381-557-50-67-217 67zm1062 921l-12 78s-109 15-115 170h283l153-150 14-98h-323z"/><path d="M2204 2216l-452-16 74 691-307 110-176-854c-52-159 56-326 223-344l134-15c380 68 711 430 711 430l-207-2z" fill="url(#id3)" fill-rule="nonzero"/><path d="M1372 285v20l-24 4c-7-14-13-25-20-31-33-28-56-50-79-37-18 11-16 59-15 82l-66 8-591 75v-1c39-9 68-78 68-161 0-82-29-150-66-161l793 90v112z" fill="url(#id5)" fill-rule="nonzero"/><path d="M621 126c-1 3-3 5-4 8-9 16-13 35-23 50-8 11-19 20-31 25-14 5-28 6-42 8-10 1-20 3-28 7 4-79 35-140 74-142l12 1c16 5 31 20 42 43z" fill="url(#id15)" fill-rule="nonzero"/><path d="M645 231h-1c-9 13-14 30-23 43-11 16-28 27-46 32-17 3-36 1-51 9-8 4-15 11-19 18-8-25-13-56-13-89 0-7 0-14 1-20 8-4 18-6 28-7 14-2 28-3 42-8 12-5 23-14 31-25 10-15 14-34 23-50 1-3 3-5 4-8 14 27 22 64 24 105z" fill="url(#id1)" fill-rule="nonzero"/><path d="M645 244c0 83-29 152-68 161-3 1-6 1-8 1-27 0-51-29-64-73 4-7 11-14 19-18 15-8 34-6 51-9 18-5 35-16 46-32 9-13 14-30 23-43h1v13z" fill="url(#id6)" fill-rule="nonzero"/><path class="fil8" d="M1839 204h239c-25 10-46 22-56 31-7 7-4 19 5 36h-188v-67zm529 40v27h-129c-12-29-22-53-25-67h154v40z"/><path fill="url(#id12)" fill-rule="nonzero" d="M1839 271v14h-467v-96h467v15z"/><path d="M1391 451l-103 78s-125-131-120-198l66-8c-1-23-3-71 15-82 23-13 46 9 79 37 7 6 13 17 20 31 24 51 43 142 43 142z" fill="url(#id10)" fill-rule="nonzero"/><path d="M698 84c-7-15-29-3-22 12 42 93 37 195-14 283-8 14 14 27 22 13 56-97 60-207 14-308z" fill="#5a2a88" fill-rule="nonzero"/><g fill-rule="nonzero"><path fill="url(#id18)" d="M2531 554v79l-95-90z"/><path d="M2531 633l95 91 92 86s209-147 290-148c6 0 11 0 16 1 72 10 116 93 103 172-13 86-11 181-93 196-83 15-446 103-446 103l-397-538 47-33 104-73 21-15 46 43 27 25 95 90z" fill="url(#id23)"/><path d="M2787 570l237 93c-5-1-10-1-16-1-81 1-290 148-290 148l-92-86 161-154z" fill="url(#id19)"/><path d="M3034 1031l-138 375-19 366s-16 2-44 6c-131 19-525 64-771-29l96-454-44-357-535 59-336-434 45-34 103-78 317 309 496-217c18 13 34 20 34 20l-47 33 397 538s363-88 446-103z" fill="url(#id4)"/><path d="M2342 490l-104 73s-16-7-34-20c-23-16-51-44-54-83-5-53-94-138-123-189-9-17-12-29-5-36 10-9 31-21 56-31 55-22 129-37 135-2 1 0 1 1 1 2 3 14 13 38 25 67 38 88 103 219 103 219z" fill="url(#id7)"/><path d="M2896 1406c-608-129-705-810-705-810l397 539 446-104-138 375z" fill="url(#id26)" fill-opacity=".38"/></g><path d="M2784 239c13-3 26-1 31 20 12 47-41 103-41 103l13 208-161 154 63-181-158 11-95-11-27-25s-18-172-18-274c0-23 1-43 3-55l1-5c111 18 265-25 265-25s22 210 51 214c30 4 39-114 39-114s17-15 34-20z" fill="url(#id8)" fill-rule="nonzero"/><path class="fil8" d="M2785 86l-1 153c-17 5-34 20-34 20s-9 118-39 114c-29-4-51-214-51-214s-154 43-265 25v-1c-35-5-65-17-86-39-85-89-55-140 67-112 121 27 374-119 409 54z"/><path class="fil24" d="M2689 543l-63 181-95-91v-79z"/><path class="fil8" d="M2384 211c25-12 50-13 76-4 16 6 4 29-12 23s-34-5-49 3-30-14-15-22zm255 61c1 15-7 28-17 29-10 0-19-12-20-27s7-28 17-29c10 0 19 12 20 27zm14-67c-26-10-51-8-76 4-15 7-1 29 14 21 16-7 34-8 50-2s28-17 12-23z"/><path class="fil24" d="M2473 359c8-40 28-80 42-117 3-8 15-2 12 6-9 23-18 47-26 71-3 8-10 22-11 30-3 30 10 28 26 35 7 3 2 15-6 11-19-8-43-10-37-36z"/><path class="fil8" d="M2459 276c-13-10-26-16-42-18-9-1-13 13-4 15 8 1 16 3 23 6-9 3-17 6-25 8-9 3-5 18 4 15 14-5 27-9 40-13 5-2 8-9 4-13z"/><path d="M2555 474c0 27-15 49-34 49-18 0-33-22-33-49s15-49 33-49c19 0 34 22 34 49z" fill="#fff" fill-rule="nonzero"/></g><g id="_259933240" fill-rule="nonzero"><path d="M7173 5017H1083s-327 218 160 255c487 36 1247 71 1228 237s-459 133-459 425c0 293 2029 226 2029 226s1147 15 1310-179-462-371-349-448c114-76 938 153 1061-32 122-186-25-303 201-328 227-24 871 65 909-156z" fill="url(#id27)" fill-opacity=".502"/><path d="M7173 5402c0 73-206 131-460 131-255 0-461-58-461-131 0-72 206-130 461-130 254 0 460 58 460 130z" fill="url(#id16)"/><path d="M2213 5516c0 55-180 99-402 99-223 0-403-44-403-99s180-100 403-100c222 0 402 45 402 100z" fill="url(#id2)"/><path d="M4574 5904c0 48-204 88-457 88-252 0-457-40-457-88 0-49 205-88 457-88 253 0 457 39 457 88z" fill="#e8fcff"/></g><g id="_259934416" fill-rule="nonzero"><path d="M4722 3846c-94-214-270-348-528-401-28-5-56-10-82-13-228-29-416 25-564 163-165 153-287 423-366 809-48 236-62 441-40 613h564c-7-101 12-266 59-494 51-247 101-414 150-501 29-50 62-84 98-100 27-11 55-14 85-8 72 15 114 74 125 176 11 103-8 275-57 515-37 180-74 317-111 412h618c29-89 54-186 76-293 14-71 25-138 34-203 35-276 15-501-61-675z" fill="url(#id11)"/><path d="M4564 3814c-85-193-235-320-452-382-25-7-50-13-76-19-265-54-480-4-646 150-165 153-287 423-366 809-16 78-28 153-36 225-19 157-19 297 0 420h563c0-4-1-7-1-11-12-98 7-270 57-515 51-247 101-414 150-501 50-87 111-123 183-108 30 6 54 19 73 40 28 30 45 76 52 136 11 103-8 274-57 515-42 201-83 349-125 444h622c32-97 61-205 86-325 75-371 66-664-27-878z" fill="url(#id20)"/><path fill="#393939" d="M4994 2368l-4 3-396 308-248 193-206 570-57-21 212-586 662-515z"/><path d="M5184 3648c-45 53-106 90-167 126l-4-8c24-30 49-66 42-104-5-26-24-47-43-64-34-29-71-54-102-85-32-31-59-69-64-113-7-58 24-112 36-169 5-23 7-47-2-69-21-48-82-59-131-78-43-18-84-51-96-96-18-66 29-133 23-201-5-47-39-90-82-108l396-308c68 58 126 135 126 223 1 56-22 109-38 163-6 21-12 44-8 66 6 33 33 59 58 83 51 49 102 108 102 179-1 80-69 151-57 229 7 50 46 90 61 139 22 67-5 141-50 195z" fill="url(#id9)"/></g></g></svg>