<svg width="218" height="172" fill="none" xmlns="http://www.w3.org/2000/svg"><g filter="url(#filter0_d)"><g filter="url(#filter1_i)"><path d="M53.058 95.209H67.97c4.01 0 6.912.981 8.704 2.944 1.835 1.963 2.752 5.163 2.752 9.6v2.432c0 5.248-1.877 8.384-5.632 9.408 2.304.597 3.926 1.984 4.864 4.16.939 2.176 1.408 5.056 1.408 8.64 0 5.845-.874 10.283-2.624 13.312-1.75 2.987-4.906 4.48-9.472 4.48H53.058V95.209zm12.992 20.672c.939 0 1.579-.341 1.92-1.024.342-.725.512-1.728.512-3.008v-5.504c0-1.792-.79-2.688-2.368-2.688H63.81v12.224h2.24zm-1.152 24.64c2.859 0 4.288-1.365 4.288-4.096v-6.848c0-1.664-.256-2.923-.768-3.776-.47-.853-1.322-1.28-2.56-1.28H63.81v15.936l1.088.064zm31.521 10.176c-4.522 0-7.893-1.28-10.112-3.84-2.176-2.56-3.264-6.357-3.264-11.392V95.209h10.688v39.808c0 1.749.17 3.115.512 4.096.342.981 1.067 1.472 2.176 1.472 1.11 0 1.835-.469 2.176-1.408.342-.981.512-2.368.512-4.16V95.209h10.688v40.256c0 5.035-1.109 8.832-3.328 11.392-2.176 2.56-5.525 3.84-10.048 3.84zm17.577-.512V95.209h22.016v10.688h-10.944v8.768h10.368v10.56h-10.368v24.96h-11.072zm25.562 0V95.209h22.016v10.688H150.63v8.768h10.368v10.56H150.63v24.96h-11.072zm25.563 0V95.209h22.016v10.624h-10.816v10.688h10.368v10.368h-10.368v12.608h11.52v10.688h-22.72zm31.111 0v-44.416h-6.528v-10.56h24.064v10.56h-6.528v44.416h-11.008z" fill="#00ADB5"/></g><path fill-rule="evenodd" clip-rule="evenodd" d="M25.223 146.661l147.882-112.8C153.731 15.027 126.422 4.643 97.458 7.768c-15.364 1.658-29.461 6.93-41.538 14.877.513-1.93.418-3.562-.42-4.644-2.706-3.493-12.127.086-20.423 6.511C30 28.443 23 39.948 24.954 42.471c1.433 1.85 4.61 2.053 8.516.879-14.53 18.593-22.118 42.643-19.387 67.958 1.382 12.81 5.277 24.74 11.14 35.353z" fill="#00ADB5"/><path fill-rule="evenodd" clip-rule="evenodd" d="M13 102c0 19.403 8.044 39.061 12 45l9.845-7.501.155.001 7.5-6-.084-.074L103 87.5l70.501-54c1.455 1.183-8.916-7.632-14.364-11.5-8.286-5.882-25.783-12.49-38.635-14-15.85-1.863-28.233 0-39.625 3.047-9.903 2.648-17.608 5.568-23.066 9.899.31-.85.245-2.001-.575-3.52-2.482-4.592-15.96-.219-23.874 8.004C28 31 20.773 40.317 26 44.5c2.232 1.787 4.924.84 7.165-.655-1.581 1.549-3.55 3.939-5.737 7.655-3.51 5.966-8.634 16-9.928 21.5a166.747 166.747 0 01-1.082 4.261C14.8 83.413 13 90.251 13 102zm22.24-59.92c.673-.483 1.183-.76 1.494-.93.117-.063.207-.111.266-.15-.457.962-.939 1.908-1.432 2.877-3.315 6.51-7.14 14.02-7.14 33.846 0 22.777 11.305 40.51 15.67 44.057 3.046 2.477 31.159-17.475 42.591-25.59A489.65 489.65 0 0190.5 93.5l46-34 33.304-25.901c-1.431-1.02-2.941-2.17-4.56-3.404C154.792 22.231 139.843 10.84 113 9.5c-28.918-1.443-50.439 9.813-56.447 12.955-.432.227-.784.41-1.053.545l.162-.16a3.633 3.633 0 01-.351.09c1.227-2.295 1.86-6.307-5.42-3.984-7.28 2.323-11.824 6.19-13.186 7.834C32.484 31.057 25.569 40.77 29.5 42c2.353.736 4.32.5 5.74.08zM30.5 129c-2.136.356-3.638.21-4.296.056-1.448-2.666-2.788-5.946-3.814-9.941-3.415-13.306-2.246-35.665 0-42.615l-.006.05c-.385 2.805-1.878 13.685 4.293 36.064 1.387 5.026 4.23 9.767 7.137 13.659a13.83 13.83 0 00-.08.136c-.445.766-1.32 2.272-3.234 2.591zm2.684-87.534c3.01.708 7.06-3.775 8.71-6.104-1.394-1.04-2.894-1.04-5.394.138-2.93 1.382-1.465-4.562.542-7.36-1.147.697-3.841 2.91-5.443 6.181-2.003 4.09-2.176 6.26 1.585 7.145z" fill="#EEE"/></g><defs><filter id="filter0_d" x="0" y="0" width="217.768" height="158.697" filterUnits="userSpaceOnUse" color-interpolation-filters="sRGB"><feFlood flood-opacity="0" result="BackgroundImageFix"/><feColorMatrix in="SourceAlpha" values="0 0 0 0 0 0 0 0 0 0 0 0 0 0 0 0 0 0 127 0"/><feOffset dy="4"/><feGaussianBlur stdDeviation="2"/><feColorMatrix values="0 0 0 0 0 0 0 0 0 0 0 0 0 0 0 0 0 0 0.25 0"/><feBlend in2="BackgroundImageFix" result="effect1_dropShadow"/><feBlend in="SourceGraphic" in2="effect1_dropShadow" result="shape"/></filter><filter id="filter1_i" x="53.058" y="95.209" width="160.71" height="59.488" filterUnits="userSpaceOnUse" color-interpolation-filters="sRGB"><feFlood flood-opacity="0" result="BackgroundImageFix"/><feBlend in="SourceGraphic" in2="BackgroundImageFix" result="shape"/><feColorMatrix in="SourceAlpha" values="0 0 0 0 0 0 0 0 0 0 0 0 0 0 0 0 0 0 127 0" result="hardAlpha"/><feOffset dy="4"/><feGaussianBlur stdDeviation="2"/><feComposite in2="hardAlpha" operator="arithmetic" k2="-1" k3="1"/><feColorMatrix values="0 0 0 0 0 0 0 0 0 0 0 0 0 0 0 0 0 0 0.25 0"/><feBlend in2="shape" result="effect1_innerShadow"/></filter></defs></svg>